<?xml version="1.0" standalone="no"?>
<!DOCTYPE svg PUBLIC "-//W3C//DTD SVG 20010904//EN"
 "http://www.w3.org/TR/2001/REC-SVG-20010904/DTD/svg10.dtd">
<svg version="1.0" xmlns="http://www.w3.org/2000/svg"
 width="1024.000000pt" height="1024.000000pt" viewBox="0 0 1024.000000 1024.000000"
 preserveAspectRatio="xMidYMid meet">

<g transform="translate(0.000000,1024.000000) scale(0.100000,-0.100000)"
fill="#000000" stroke="none">
<path d="M0 5120 l0 -5120 5120 0 5120 0 0 5120 0 5120 -5120 0 -5120 0 0
-5120z m5445 4300 c105 -33 215 -94 286 -158 l63 -57 -100 -6 c-54 -4 -189 -8
-299 -9 -110 -1 -222 -5 -250 -8 -45 -6 -50 -10 -59 -41 -18 -63 -19 -63 418
-59 l388 2 24 -29 c13 -17 24 -32 24 -35 0 -3 -39 -23 -87 -44 l-88 -39 -192
-8 c-202 -8 -294 -21 -313 -44 -15 -18 -5 -51 18 -60 9 -4 101 -9 205 -12 103
-3 187 -6 187 -7 0 -1 -9 -28 -19 -61 l-19 -60 -88 -6 c-105 -7 -152 -26 -194
-79 -56 -70 -73 -125 -67 -206 l5 -72 -40 0 c-63 -1 -118 -29 -90 -46 21 -13
144 -18 434 -20 174 -1 319 -4 322 -6 2 -3 -16 -37 -42 -76 l-46 -71 -356 -6
c-196 -3 -363 -9 -373 -13 -25 -9 -22 -60 4 -74 17 -9 416 -30 514 -27 11 0
38 -1 60 -2 38 -2 39 -3 15 -13 -14 -5 -33 -14 -42 -19 -10 -5 -44 -10 -75
-11 -51 -1 -53 -2 -15 -5 23 -2 40 -8 37 -13 -3 -4 5 -6 17 -3 20 4 19 2 -7
-17 -43 -30 -91 -54 -165 -81 -59 -22 -81 -24 -230 -24 -136 0 -175 3 -220 19
-198 68 -379 210 -474 373 -25 42 -46 82 -46 88 0 6 75 11 208 13 116 1 226 7
251 14 25 7 60 27 82 48 33 31 39 43 39 79 0 80 -51 163 -127 207 -39 24 -60
28 -149 32 -73 3 -104 8 -104 17 0 24 -69 151 -97 177 -16 15 -48 38 -73 51
-28 15 -44 30 -44 41 3 28 95 173 146 231 102 114 273 215 418 246 119 26 325
21 425 -11z m570 -145 c199 -34 469 -118 714 -222 352 -150 559 -267 891 -505
81 -58 94 -86 50 -101 -22 -8 -43 3 -155 79 -295 200 -568 346 -855 459 -80
31 -166 64 -192 75 -66 26 -283 89 -396 114 -94 21 -96 22 -130 69 -19 26 -30
47 -25 47 4 0 49 -7 98 -15z m-1515 -20 c0 -3 -8 -13 -17 -24 -10 -10 -32 -34
-50 -53 -26 -28 -44 -38 -94 -47 -147 -29 -442 -147 -744 -298 -173 -86 -250
-131 -390 -222 -55 -36 -104 -68 -108 -70 -5 -1 -7 18 -5 45 l3 48 97 65 c171
116 498 285 763 394 190 78 545 184 545 162z m-1525 -1181 c0 -1486 -4 -2274
-13 -2274 -4 -1 -33 -7 -64 -14 -32 -8 -58 -10 -58 -5 0 5 14 9 30 9 27 0 30
3 30 30 0 17 -4 30 -10 30 -5 0 -10 -5 -10 -11 0 -6 -9 -9 -20 -6 -13 3 -20 0
-20 -8 0 -8 12 -16 28 -18 26 -4 26 -4 -4 -6 l-31 -1 -6 503 c-4 276 -7 1003
-7 1615 l0 1113 31 17 c17 9 47 29 68 44 20 14 41 25 46 24 7 -2 10 -357 10
-1042z m3272 920 c62 -21 77 -35 28 -27 -35 6 -37 4 -31 -15 6 -19 1 -18 -50
13 -31 19 -59 37 -62 40 -12 12 70 4 115 -11z m-3562 -65 c10 -30 2 -2760 -7
-2766 -5 -2 -8 9 -8 26 0 25 -5 30 -30 36 -16 4 -30 13 -30 21 0 12 -4 12 -19
2 -11 -7 -17 -17 -14 -23 3 -5 -3 -2 -13 8 -18 17 -19 59 -24 1330 -3 722 -3
1317 -2 1324 3 10 108 59 134 62 4 1 10 -9 13 -20z m3402 -50 c78 -29 151
-141 155 -238 2 -34 5 -61 7 -61 3 0 39 10 80 21 136 38 263 16 333 -58 29
-30 58 -91 58 -121 0 -18 -22 -19 -552 -25 -304 -4 -593 -4 -642 0 l-88 6 4
49 c9 89 49 107 239 108 l116 0 -9 53 c-19 101 8 178 78 226 64 44 163 62 221
40z m-3691 -10 c9 -14 7 -1813 -2 -2171 l-7 -258 -41 38 c-23 21 -52 45 -66
55 l-25 17 -3 1115 c-3 613 -2 1125 2 1138 4 17 22 32 63 50 66 30 69 31 79
16z m1996 -35 c42 -21 97 -73 114 -107 9 -16 21 -59 28 -96 l12 -66 136 -5
c127 -5 138 -7 162 -29 31 -29 63 -108 49 -122 -6 -6 -242 -8 -629 -7 l-619 3
-3 29 c-5 41 15 80 63 125 72 67 151 77 265 35 39 -15 73 -24 75 -22 3 3 10
31 16 64 5 32 13 67 16 78 7 26 71 95 104 112 68 34 153 38 211 8z m-469 -81
c-7 -2 -21 -2 -30 0 -10 3 -4 5 12 5 17 0 24 -2 18 -5z m-291 -70 c-3 -16 -24
-49 -47 -74 -52 -56 -76 -101 -104 -195 -34 -114 -39 -108 96 -122 148 -16
193 -35 221 -93 11 -24 22 -65 25 -91 l4 -47 -45 50 c-95 104 -235 138 -302
74 -20 -19 -30 -24 -30 -14 0 12 -2 12 -9 0 -7 -10 -26 -14 -63 -13 -56 1
-218 -14 -256 -24 l-23 -7 7 129 c5 100 10 133 23 145 57 57 467 309 502 309
3 0 4 -12 1 -27z m4788 -179 c41 -14 122 -50 180 -81 126 -67 142 -77 132 -88
-4 -5 -2 -5 5 -1 16 9 63 -22 63 -40 0 -8 5 -14 11 -14 5 0 7 5 3 12 -4 7 -3
8 4 4 21 -13 13 -28 -12 -22 -40 10 -88 -4 -83 -24 5 -20 -20 -23 -27 -3 -3 8
-10 12 -15 9 -8 -6 -232 123 -361 206 -38 25 -53 29 -96 26 -51 -4 -180 -59
-239 -103 -16 -12 -61 -39 -100 -60 -38 -21 -72 -41 -75 -45 -3 -4 -27 -19
-55 -35 -27 -15 -60 -36 -74 -46 -13 -10 -31 -19 -40 -19 -9 0 -29 -9 -45 -19
-20 -13 -39 -18 -58 -14 -20 4 -29 1 -34 -11 -4 -9 -18 -16 -35 -16 -17 0 -34
-8 -43 -21 -8 -12 -20 -19 -28 -16 -16 5 -50 -11 -44 -21 3 -5 -4 -9 -15 -9
-10 -1 -19 2 -19 7 0 13 154 130 245 185 44 27 144 88 223 136 250 152 436
188 632 123z m-53 -138 c43 -28 96 -64 118 -81 22 -18 81 -57 130 -87 236
-145 528 -351 522 -370 -1 -3 -77 -56 -169 -116 -92 -60 -184 -122 -205 -136
-21 -15 -117 -79 -213 -143 l-175 -117 -110 -4 -110 -4 -70 40 c-38 22 -142
88 -230 147 -88 59 -198 130 -245 157 -112 66 -246 156 -262 175 -19 24 6 43
402 306 107 71 218 146 245 167 28 21 93 63 145 93 108 63 79 66 227 -27z
m-4322 -116 c-3 -5 -14 -10 -23 -10 -15 0 -15 2 -2 10 20 13 33 13 25 0z
m2479 -27 c15 -4 16 -7 5 -14 -11 -6 -11 -9 1 -13 44 -14 38 -16 -29 -10 -88
7 -114 14 -85 25 18 6 17 8 -6 18 -20 9 -14 10 35 5 33 -3 68 -8 79 -11z
m-2573 -11 c-13 -25 -41 -48 -41 -34 0 10 38 52 47 52 2 0 -1 -8 -6 -18z m126
2 c-3 -3 -12 -4 -19 -1 -8 3 -5 6 6 6 11 1 17 -2 13 -5z m4858 -4 c3 -6 -1 -7
-9 -4 -18 7 -21 14 -7 14 6 0 13 -4 16 -10z m-5321 -124 c41 -8 86 -21 98 -27
13 -7 29 -14 36 -15 29 -5 20 -11 -35 -23 -32 -7 -68 -17 -81 -22 -18 -7 -30
-4 -53 11 -32 24 -59 58 -59 77 0 16 2 16 94 -1z m478 -31 c71 -25 161 -125
135 -151 -3 -3 -41 15 -84 40 -89 51 -152 76 -194 76 -35 0 -39 22 -6 38 32
16 97 14 149 -3z m2470 -20 c107 -22 194 -69 269 -144 84 -85 111 -141 117
-244 l5 -79 -22 18 c-12 11 -36 48 -53 83 -41 87 -95 142 -171 177 -58 27 -70
29 -187 29 -120 0 -128 -1 -190 -31 -45 -22 -94 -60 -160 -123 -52 -50 -104
-91 -115 -92 -11 0 -14 -3 -7 -6 8 -3 5 -10 -10 -23 -26 -21 -48 -11 -48 21 0
15 -7 19 -36 19 -19 0 -33 4 -30 9 4 5 0 12 -6 14 -7 3 -3 6 9 6 12 1 25 6 29
13 5 7 2 9 -7 4 -21 -12 44 45 93 80 61 44 136 86 188 106 42 17 43 17 10 12
-48 -7 -69 -18 -196 -100 -82 -54 -152 -112 -269 -226 -173 -167 -431 -445
-554 -597 -102 -125 -502 -522 -577 -572 -33 -22 -70 -52 -84 -67 -41 -44
-131 -78 -321 -122 -69 -15 -189 -52 -265 -81 -177 -66 -471 -165 -549 -185
-33 -8 -105 -28 -160 -45 -55 -17 -112 -34 -127 -39 -25 -7 -26 -6 -30 39 -6
70 3 200 13 176 5 -14 8 -3 10 35 1 30 4 45 6 33 2 -12 11 -27 19 -33 12 -10
14 -8 14 14 0 16 5 26 15 26 8 0 15 -7 15 -15 0 -8 5 -15 10 -15 6 0 10 4 10
8 0 4 8 8 18 8 9 1 121 4 247 8 127 4 262 12 300 18 67 10 343 97 375 118 8 6
60 32 116 60 122 59 258 162 339 256 33 38 118 130 190 204 73 74 179 191 237
260 263 311 619 661 808 794 247 174 489 239 712 191z m748 5 c0 -5 -5 -10
-11 -10 -5 0 -7 5 -4 10 3 6 8 10 11 10 2 0 4 -4 4 -10z m-5281 -35 c68 -37
101 -85 101 -144 l0 -45 -47 46 c-95 91 -193 117 -297 78 -108 -41 -189 -156
-171 -242 26 -118 132 -216 240 -219 22 -1 31 -3 20 -6 -11 -3 -24 -9 -30 -14
-14 -13 -58 -11 -49 2 5 9 -4 10 -32 5 -28 -5 -35 -4 -24 3 13 9 13 11 -2 11
-9 0 -23 -7 -31 -14 -13 -13 -20 -11 -56 20 -82 70 -120 172 -101 272 24 134
108 233 230 273 14 5 63 7 110 6 72 -3 93 -7 139 -32z m1376 2 c80 -40 123
-90 145 -168 7 -23 5 -27 -7 -22 -21 8 -124 69 -140 83 -26 22 -84 44 -91 35
-8 -11 -71 -35 -91 -35 -7 0 -24 9 -38 20 -14 11 -23 20 -19 20 4 0 0 7 -9 16
-23 23 -15 36 35 62 58 30 143 26 215 -11z m603 -104 c80 -65 152 -142 152
-163 0 -11 9 -28 20 -37 22 -19 28 -73 8 -73 -7 0 -40 -11 -73 -25 -40 -17
-61 -21 -66 -13 -4 6 -11 8 -17 4 -5 -3 -12 1 -16 9 -3 8 -1 15 4 15 6 0 5 8
-2 19 -13 22 -38 17 -38 -8 -1 -14 -2 -14 -11 2 -6 10 -8 25 -5 33 8 22 -19
150 -48 228 -14 37 -26 72 -26 77 0 12 67 -26 118 -68z m-218 12 c1 11 4 15 6
9 3 -6 0 -22 -5 -35 -7 -17 -10 -19 -10 -6 -1 17 -21 25 -21 7 0 -5 -7 -7 -16
-3 -13 5 -12 9 8 30 l23 25 6 -24 c6 -20 7 -21 9 -3z m-1895 -83 c11 -10 29
-28 40 -42 l20 -23 -32 23 c-26 19 -40 22 -82 18 -28 -3 -51 -3 -51 -1 0 3 10
13 23 24 28 23 56 23 82 1z m4588 -90 c-74 -72 -99 -168 -69 -260 19 -55 60
-98 126 -132 60 -30 48 -50 -28 -50 -88 0 -159 46 -203 131 -54 106 9 260 131
324 72 38 90 32 43 -13z m200 -16 c18 -7 45 -28 60 -45 22 -27 27 -42 27 -87
0 -30 -3 -54 -6 -54 -15 0 -53 26 -90 62 -55 52 -89 50 -121 -7 -13 -22 -23
-43 -23 -46 0 -3 18 -16 41 -28 42 -24 106 -81 91 -81 -5 0 -33 10 -62 22 -46
19 -54 27 -76 76 -29 65 -29 75 -4 130 29 64 94 87 163 58z m-1836 -33 c8 -10
11 -12 8 -5 -6 11 -3 12 13 3 11 -6 33 -16 48 -22 23 -8 25 -12 14 -19 -8 -6
-29 -10 -47 -10 -25 0 -31 4 -27 15 4 10 0 15 -12 15 -9 0 -14 3 -11 7 4 3 2
12 -4 20 -6 7 -8 13 -4 13 4 0 14 -8 22 -17z m-1033 -283 c-7 -44 -7 -45 -15
-15 -9 30 -4 118 9 165 10 36 15 -93 6 -150z m1439 90 c5 -4 -6 -19 -23 -34
-28 -23 -40 -26 -103 -26 -40 0 -110 -5 -157 -10 -168 -19 -521 -22 -638 -5
-147 21 -212 35 -212 45 0 4 -10 6 -22 3 -19 -4 -20 -3 -8 6 12 9 11 11 -7 11
-25 0 -31 15 -10 23 20 8 1171 -5 1180 -13z m-3518 -60 c3 -6 -1 -7 -9 -4 -18
7 -21 14 -7 14 6 0 13 -4 16 -10z m2202 -12 c-3 -8 -6 -5 -6 6 -1 11 2 17 5
13 3 -3 4 -12 1 -19z m-2162 -6 c-3 -3 -11 0 -18 7 -9 10 -8 11 6 5 10 -3 15
-9 12 -12z m103 -9 c-10 -2 -26 -2 -35 0 -10 3 -2 5 17 5 19 0 27 -2 18 -5z
m4320 -99 c17 -31 30 -60 26 -65 -3 -5 -40 -9 -83 -9 -67 0 -86 -4 -137 -30
-32 -16 -84 -54 -114 -84 -113 -110 -108 -120 27 -51 134 68 198 83 257 61 22
-9 64 -35 92 -58 57 -47 164 -170 164 -188 0 -6 -16 -18 -35 -26 -38 -16 -85
-19 -85 -5 0 16 -119 89 -157 96 -31 5 -49 0 -118 -34 -44 -22 -89 -49 -99
-60 -20 -22 -30 -109 -15 -128 10 -11 -120 -59 -321 -117 -47 -14 -107 -31
-133 -40 -46 -14 -48 -14 -35 4 7 10 66 96 131 192 213 314 241 351 337 449
79 80 106 100 160 122 93 37 100 36 138 -29z m-4260 -57 c60 -16 124 -58 160
-105 19 -25 27 -49 30 -93 2 -32 2 -59 -1 -59 -3 0 -20 15 -39 34 -28 28 -44
35 -94 41 -51 6 -137 23 -210 42 -12 2 -42 -4 -66 -15 -34 -15 -51 -31 -71
-67 -33 -59 -34 -82 -2 -130 l26 -37 -29 21 c-30 21 -70 100 -79 156 -11 66
46 168 114 204 46 24 181 28 261 8z m3015 -7 c49 0 57 -3 57 -19 0 -10 -9 -29
-19 -42 l-19 -24 -779 -4 c-428 -1 -847 0 -931 4 l-153 7 3 36 3 36 125 3 c68
2 126 6 129 8 3 4 299 3 1584 -5z m4227 -22 c50 -21 115 -99 129 -153 7 -30
11 -259 12 -727 1 -777 3 -839 42 -897 15 -22 27 -44 27 -48 0 -5 -86 -8 -190
-8 -105 0 -190 3 -190 6 0 3 10 14 21 25 43 38 49 72 49 284 l0 200 -27 -1
c-16 0 -62 -8 -103 -17 l-75 -17 0 -201 0 -200 28 -33 c15 -18 27 -36 27 -40
0 -5 -57 -11 -127 -15 -71 -4 -155 -13 -188 -21 -33 -7 -61 -12 -62 -11 -2 2
15 28 38 60 58 81 65 131 53 392 -9 209 -9 210 -36 243 -37 43 -36 68 1 76 16
3 34 12 40 19 7 8 11 176 13 482 l3 471 28 36 c29 39 118 90 185 107 55 14
260 6 302 -12z m-2785 -58 c53 -15 60 -20 61 -44 1 -14 -2 -26 -5 -26 -6 0
-74 44 -126 81 -16 12 -21 18 -10 14 11 -4 47 -15 80 -25z m1993 -16 c56 -27
92 -71 110 -134 6 -19 12 -117 15 -217 l4 -181 -29 10 c-35 12 -167 5 -196
-11 -21 -11 -21 -9 -15 113 7 151 3 172 -41 193 -41 19 -70 13 -116 -25 l-35
-30 0 -178 c0 -99 3 -191 7 -206 9 -30 91 -93 231 -177 170 -102 182 -121 191
-301 4 -69 2 -201 -3 -295 -10 -190 -23 -233 -85 -303 -64 -71 -240 -129 -359
-119 -96 9 -194 82 -216 164 -6 21 -11 128 -11 237 0 176 -2 202 -17 219 -18
19 -17 20 22 11 58 -13 179 -8 212 8 l29 14 -4 -152 c-5 -182 -2 -201 40 -218
41 -18 85 -5 121 34 l27 30 0 214 0 214 -32 27 c-18 14 -85 62 -148 106 -113
79 -211 165 -233 204 -14 26 -10 515 5 568 49 166 345 268 526 181z m-1873
-98 c7 3 38 -18 69 -47 57 -52 57 -53 34 -65 -46 -26 -62 -18 -101 51 -37 65
-46 88 -26 68 6 -6 17 -9 24 -7z m-1673 -39 c-20 -21 -46 -43 -57 -49 -13 -8
-274 -10 -855 -9 -459 1 -836 3 -836 4 -1 1 0 22 3 47 l5 45 889 0 888 0 -37
-38z m2768 -15 c39 -19 75 -67 90 -121 12 -45 13 -474 0 -560 -11 -81 -61
-158 -130 -203 -27 -18 -50 -36 -50 -39 0 -3 18 -14 40 -24 45 -20 114 -90
132 -133 8 -18 12 -114 13 -292 1 -305 2 -310 84 -382 l52 -45 -68 -6 c-63 -6
-231 -39 -265 -52 -31 -12 -42 84 -46 415 -4 359 1 340 -97 386 -92 44 -85 76
-85 -362 0 -374 1 -388 21 -420 11 -19 28 -38 37 -44 23 -13 3 -26 -52 -35
-23 -3 -104 -23 -181 -45 -77 -21 -141 -37 -142 -36 -2 2 11 24 28 50 17 25
35 63 40 84 9 40 12 855 3 887 -3 11 -20 29 -37 40 -43 28 -44 41 0 52 l38 9
3 341 2 340 -41 41 -42 40 39 7 c21 3 113 29 204 57 265 82 327 89 410 50z
m-705 -286 l0 -173 -24 18 c-33 26 -69 23 -196 -15 l-110 -34 -3 -251 -2 -250
52 23 c29 13 74 31 100 40 48 18 90 51 120 96 16 24 17 17 18 -150 0 -96 3
-193 7 -215 l6 -39 -39 32 c-21 18 -48 32 -59 32 -11 1 -62 -12 -113 -27 l-94
-28 4 -292 c1 -161 4 -293 5 -293 1 0 58 18 125 40 109 36 127 45 163 84 l40
43 -3 -133 c-3 -102 -1 -143 11 -178 l16 -46 -37 -10 c-174 -47 -471 -137
-532 -161 -41 -16 -81 -29 -87 -29 -20 0 -15 25 8 46 45 40 47 56 49 519 2
242 2 445 1 452 0 6 -21 23 -46 38 -25 14 -43 31 -39 37 4 5 25 18 48 29 l41
18 1 336 2 335 -35 30 c-19 17 -32 34 -29 39 3 5 27 12 53 16 27 4 100 24 163
45 63 21 174 57 247 80 102 32 168 60 168 70 0 0 0 -78 0 -174z m-5145 128 c0
-2 -11 -4 -25 -4 -14 0 -25 4 -25 9 0 4 11 6 25 3 14 -2 25 -6 25 -8z m2808
10 l91 -7 -30 -38 c-19 -24 -44 -42 -67 -49 -24 -7 -292 -11 -750 -13 l-712
-2 0 52 c0 49 2 52 28 56 46 7 1343 7 1440 1z m-86 -208 c-56 -61 -145 -71
-503 -57 -162 6 -370 12 -464 12 -144 1 -382 22 -320 29 17 2 16 3 -5 10 -19
5 -21 9 -10 13 24 10 125 12 737 12 565 0 581 -1 565 -19z m1719 -27 c-13 -55
-14 -211 -1 -264 5 -22 7 -41 6 -43 -2 -1 -17 9 -34 23 -17 14 -41 27 -52 28
-11 1 -74 -17 -140 -38 l-119 -40 -1 -242 c0 -134 1 -243 3 -243 2 0 32 11 66
25 84 33 144 68 173 104 l25 29 6 -161 c3 -89 10 -174 16 -189 6 -16 9 -28 8
-28 -2 0 -21 9 -42 20 -46 24 -63 21 -178 -22 l-77 -30 2 -291 c2 -188 7 -291
13 -290 41 10 215 77 240 93 17 11 42 35 56 54 l24 34 0 -188 0 -187 -70 -17
c-69 -18 -372 -117 -492 -162 -34 -12 -65 -20 -67 -16 -3 4 8 27 23 50 l28 41
5 443 c6 483 7 470 -52 504 -42 25 -39 50 8 65 20 6 40 17 44 23 4 6 8 162 8
347 l0 335 -35 34 c-19 18 -32 36 -30 40 3 4 25 11 50 14 43 7 484 149 555
179 19 9 36 14 38 12 1 -1 -2 -22 -7 -46z m-3045 22 c-4 -5 0 -12 6 -15 7 -3
1 -4 -14 -1 -20 4 -28 0 -31 -12 -3 -11 -5 -7 -6 10 -1 23 3 27 25 27 14 0 23
-4 20 -9z m-1261 -51 c91 -24 203 -74 272 -121 68 -47 199 -184 249 -261 48
-72 118 -243 109 -265 -2 -8 -1 -12 4 -9 10 7 42 -138 44 -202 2 -44 0 -47
-25 -50 -26 -3 -27 -1 -25 37 1 23 6 41 12 41 18 0 17 88 -2 98 -9 6 -12 12
-5 16 11 7 4 46 -9 46 -5 0 -6 -7 -3 -15 8 -19 0 -19 -41 1 -24 11 -41 32 -64
77 -17 34 -42 76 -55 92 l-25 30 21 -45 c12 -25 25 -46 29 -48 5 -2 5 -10 2
-18 -3 -8 0 -14 7 -14 7 0 9 -8 5 -20 -4 -12 0 -31 9 -44 10 -16 11 -23 3 -22
-7 0 -13 -3 -14 -9 -2 -5 2 -11 7 -11 21 -3 21 -4 5 -20 -15 -15 -17 -15 -31
2 -16 19 -16 18 1 -36 7 -22 6 -23 -9 -11 -14 12 -16 11 -17 -5 0 -11 -10 10
-22 46 -36 103 -97 197 -189 286 -134 131 -281 194 -454 194 -201 0 -364 -67
-499 -206 -73 -75 -119 -149 -159 -257 -27 -76 -30 -92 -30 -217 -1 -161 18
-242 91 -383 76 -147 215 -276 397 -368 l91 -46 -3 -74 c-2 -41 -5 -75 -6 -76
-6 -6 -200 99 -271 146 -109 73 -271 239 -313 322 -53 104 -74 140 -79 135 -2
-2 5 -24 17 -48 12 -23 26 -54 31 -68 l9 -25 -19 22 c-10 12 -21 20 -24 16
-11 -10 -67 -13 -67 -3 0 6 -4 10 -9 10 -5 0 -7 -10 -5 -22 7 -40 -23 31 -45
102 -35 118 -44 198 -38 361 6 183 26 271 92 404 57 116 123 202 233 306 127
121 272 201 442 245 78 20 271 12 375 -16z m1985 -85 c165 -18 249 -18 360 -1
47 7 86 12 87 11 2 -1 -9 -8 -25 -16 -15 -7 -56 -31 -92 -53 -36 -21 -72 -39
-80 -39 -8 0 -17 -3 -20 -7 -5 -6 -371 14 -426 24 -44 9 -536 9 -558 0 -23 -9
-36 10 -36 54 0 24 6 35 23 43 31 13 599 2 767 -16z m5711 -25 c27 -26 30 -35
27 -81 -2 -43 -8 -55 -31 -72 -90 -68 -196 39 -142 143 17 33 27 38 78 39 30
1 45 -6 68 -29z m-4041 -29 c0 -6 -4 -12 -9 -15 -21 -13 -44 -113 -67 -296
-43 -338 -72 -598 -94 -825 -11 -121 -32 -301 -46 -400 -14 -99 -28 -235 -31
-302 l-6 -122 -31 -7 c-17 -3 -90 -28 -163 -55 -72 -27 -134 -49 -137 -49 -3
0 -6 20 -6 44 0 24 -31 305 -69 623 -39 318 -77 648 -86 733 -25 242 -42 338
-65 376 -12 19 -27 34 -32 34 -30 0 18 19 173 70 93 31 169 51 169 45 0 -6
-12 -28 -27 -49 l-26 -40 11 -125 c7 -69 19 -191 27 -271 9 -80 24 -228 35
-330 11 -102 26 -231 35 -287 8 -57 15 -117 15 -135 0 -17 2 -29 5 -26 13 13
36 203 55 443 11 143 29 356 40 474 11 118 20 243 20 278 0 57 -3 65 -30 90
-16 14 -30 29 -30 33 0 3 39 14 88 24 48 9 125 30 172 46 93 32 110 35 110 21z
m-1535 -111 c-3 -5 -12 -10 -18 -10 -7 0 -6 4 3 10 19 12 23 12 15 0z m-142
-11 c20 -7 34 -16 31 -21 -3 -4 1 -8 8 -8 12 -1 -10 -11 -98 -44 -48 -17 -176
-22 -497 -18 -239 2 -235 1 -223 65 l6 32 369 4 c283 2 377 0 404 -10z m-2074
-140 c54 -12 136 -51 175 -82 l30 -24 -38 -39 c-21 -21 -60 -61 -87 -89 l-49
-50 -113 -3 c-82 -3 -123 -9 -155 -22 -55 -24 -148 -113 -164 -156 -7 -19 -16
-34 -20 -34 -4 0 -7 -3 -6 -7 5 -19 -15 -53 -30 -54 -11 0 -12 -3 -4 -6 6 -2
12 -12 12 -20 0 -9 -6 -13 -15 -9 -8 3 -15 1 -15 -4 0 -6 -8 -10 -19 -10 -12
0 -20 9 -24 28 -3 15 -7 35 -9 46 -5 21 -98 107 -109 100 -19 -11 -19 22 1 81
56 168 200 304 370 349 64 17 206 20 269 5z m2870 -36 c-12 -52 -11 -220 1
-262 12 -43 7 -48 -24 -27 -37 23 -68 20 -188 -20 l-108 -36 0 -248 0 -248 68
25 c91 33 144 65 184 112 l34 40 0 -167 c-1 -92 2 -186 7 -209 l7 -43 -36 25
c-20 14 -44 25 -53 25 -9 0 -57 -14 -107 -32 l-91 -31 -6 -231 c-3 -127 -3
-258 0 -292 l5 -61 122 42 c98 34 129 49 161 81 l40 39 0 -172 0 -173 -145
-49 c-80 -27 -208 -73 -285 -101 -153 -57 -185 -66 -185 -55 0 4 10 24 23 44
22 36 22 38 24 491 l1 455 -50 46 c-54 51 -53 55 12 74 l35 11 3 357 2 358
-37 34 c-21 19 -35 36 -33 38 3 2 28 9 55 15 66 14 302 89 440 140 61 22 115
40 121 41 9 1 9 -10 3 -36z m-670 -210 c-10 -46 -10 -188 0 -260 7 -49 1 -67
-14 -43 -3 6 -19 17 -36 25 -26 14 -35 14 -94 -2 l-65 -17 -2 -761 c-2 -418 0
-774 4 -791 5 -17 19 -41 33 -54 14 -13 25 -27 25 -31 0 -14 -348 -114 -358
-104 -4 3 -2 12 3 19 54 73 49 -2 56 856 4 432 5 787 3 789 -2 2 -36 -8 -75
-24 -47 -18 -83 -41 -110 -68 -21 -22 -41 -38 -44 -36 -2 3 0 22 6 42 6 21 11
76 12 123 2 85 2 86 -30 115 -18 16 -33 30 -33 33 0 2 19 6 43 10 85 13 535
152 627 194 60 27 59 28 49 -15z m-2159 -58 c14 -8 21 -14 15 -14 -5 0 -21 6
-35 14 -14 8 -20 14 -15 14 6 0 21 -6 35 -14z m517 -127 c-3 -8 -6 -5 -6 6 -1
11 2 17 5 13 3 -3 4 -12 1 -19z m777 -112 c35 -15 78 -63 95 -108 6 -16 11
-149 12 -320 l2 -293 -26 -51 c-26 -52 -61 -94 -112 -133 -28 -21 -29 -23 -10
-33 38 -22 107 -93 128 -133 20 -38 21 -53 19 -265 -2 -124 0 -252 4 -285 6
-54 11 -64 53 -106 25 -25 53 -49 61 -52 24 -9 -4 -24 -85 -43 -38 -9 -105
-28 -148 -41 -44 -13 -81 -23 -83 -20 -3 2 -12 37 -21 78 -13 59 -16 137 -17
384 l-1 309 -34 23 c-31 21 -130 57 -137 50 -2 -1 -4 -186 -5 -410 l-2 -408
33 -34 c19 -19 32 -37 29 -39 -2 -2 -56 -16 -120 -30 -63 -14 -140 -35 -170
-45 -32 -12 -58 -16 -63 -11 -9 9 -7 15 29 81 13 22 15 158 15 894 l0 869 -35
36 c-19 20 -35 39 -35 43 0 4 14 7 31 7 35 0 206 38 329 74 98 28 213 34 264
12z m-897 -96 c23 -10 70 -45 103 -77 l60 -59 1 -774 c0 -426 4 -815 7 -863 7
-88 7 -89 50 -128 23 -22 42 -41 42 -43 0 -2 -26 -7 -57 -11 -32 -3 -106 -17
-165 -31 -100 -23 -158 -30 -158 -19 0 2 11 21 25 41 l25 37 0 283 c0 269 -1
284 -18 284 -25 0 -118 -32 -171 -59 l-42 -22 3 -254 3 -253 32 -45 31 -45
-46 -6 c-26 -3 -78 -8 -117 -11 -38 -4 -101 -13 -139 -21 -38 -7 -71 -12 -73
-11 -1 2 8 18 22 37 36 48 44 110 47 363 l3 227 -47 0 -48 0 0 73 c0 80 18
122 72 168 l30 25 2 480 1 479 34 58 c50 87 108 126 261 173 93 28 171 30 227
4z m6712 -322 c-12 -24 -35 -62 -50 -85 -23 -32 -29 -53 -29 -92 0 -48 -2 -51
-25 -51 -23 0 -25 4 -25 48 0 39 -8 59 -45 116 -25 38 -45 75 -45 83 0 28 30
11 64 -37 20 -27 42 -50 49 -50 7 0 23 18 36 40 29 51 48 70 72 70 19 0 19 -1
-2 -42z m-295 -13 c13 -9 29 -29 36 -46 11 -26 10 -33 -14 -69 l-27 -41 27
-34 c26 -34 25 -55 -1 -55 -8 0 -26 15 -40 34 -25 33 -77 61 -89 49 -3 -4 -6
-26 -6 -49 0 -46 -8 -58 -30 -44 -10 6 -14 40 -17 129 -3 134 -10 119 62 134
43 9 77 6 99 -8z m-234 -40 c0 -20 -6 -25 -37 -30 -60 -10 -83 -23 -83 -46 0
-20 3 -21 49 -15 28 4 52 2 55 -3 13 -21 -8 -40 -50 -47 -41 -6 -45 -9 -42
-33 3 -28 6 -28 86 -15 31 5 33 3 30 -18 -2 -19 -12 -25 -58 -35 -30 -6 -67
-12 -81 -12 l-26 -1 -7 117 c-4 74 -3 120 4 127 5 5 42 15 82 22 40 6 74 12
76 13 1 1 2 -10 2 -24z m844 -1 c10 -4 16 -18 16 -35 0 -35 -19 -41 -105 -37
-54 3 -60 5 -63 26 -7 45 3 52 72 52 35 0 71 -3 80 -6z m-1184 -145 l0 -99 28
6 c15 3 42 10 60 14 26 7 34 5 39 -7 14 -37 -16 -54 -120 -67 l-57 -7 0 130
c0 115 2 130 18 134 9 2 20 2 25 0 4 -2 7 -49 7 -104z m-235 29 c3 -13 6 -57
7 -98 l3 -75 30 1 c17 1 45 5 63 9 33 8 34 7 30 -21 -3 -26 -9 -31 -63 -46
-108 -30 -101 -36 -109 107 -4 68 -5 129 -1 135 11 18 34 11 40 -12z m-156
-143 c51 -94 60 -119 51 -130 -17 -20 -27 -19 -35 5 -5 15 -15 20 -45 20 -56
0 -85 -14 -100 -49 -8 -19 -20 -31 -31 -31 -11 0 -19 1 -19 3 0 2 14 41 31 87
17 47 37 108 45 135 9 28 17 56 19 63 9 25 22 9 84 -103z m-275 45 c26 -9 35
-34 17 -45 -6 -3 -31 -7 -57 -9 -89 -7 -135 -96 -79 -151 29 -30 40 -31 83 -5
41 25 42 50 2 50 -53 0 -34 47 24 60 44 10 51 0 50 -68 -1 -51 -27 -83 -83
-102 -49 -16 -86 -7 -122 30 -24 23 -29 37 -29 75 0 70 33 121 105 158 35 19
55 20 89 7z m1820 -85 c-1 -5 -39 -26 -85 -46 -46 -19 -108 -52 -138 -72 -61
-42 -71 -45 -71 -18 0 30 89 120 135 136 44 16 161 16 159 0z m-414 -36 c57
-34 80 -60 80 -91 0 -15 -3 -28 -6 -28 -3 0 -35 14 -70 31 -61 28 -111 41
-226 54 -27 4 -48 10 -48 15 0 23 58 39 145 40 74 0 96 -4 125 -21z m-2028
-188 c2 -87 0 -125 -9 -128 -6 -2 -41 24 -77 58 -73 68 -69 70 -70 -41 -1 -63
-2 -65 -28 -68 l-28 -3 0 135 c0 159 1 160 82 88 99 -88 92 -89 86 5 -4 69 -2
83 11 86 9 2 19 1 23 -2 4 -4 9 -62 10 -130z m260 113 c11 -23 10 -29 -11 -45
-17 -14 -36 -19 -68 -17 -43 3 -43 4 -37 33 9 44 22 55 65 55 33 0 41 -4 51
-26z m2228 -23 c42 -30 82 -95 78 -127 l-3 -29 -30 31 c-42 44 -73 58 -203 90
-94 23 -110 29 -90 37 81 30 204 30 248 -2z m-2802 -80 c2 -22 0 -31 -7 -26
-6 3 -27 1 -46 -5 -28 -9 -35 -17 -35 -37 0 -25 1 -25 56 -21 54 5 55 4 52
-21 -3 -23 -10 -27 -58 -36 -45 -8 -55 -14 -55 -30 0 -16 7 -20 35 -20 19 0
48 4 63 8 25 7 28 5 25 -14 -2 -18 -19 -27 -93 -50 -49 -16 -90 -29 -90 -29 0
0 0 63 0 140 0 133 1 140 20 140 11 1 36 10 55 20 51 28 74 23 78 -19z m2464
-81 c18 -74 20 -106 16 -250 -5 -146 -9 -175 -33 -247 -42 -126 -66 -109 -85
57 -13 116 2 301 36 440 28 115 37 136 42 105 2 -11 13 -58 24 -105z m131 65
c45 -30 95 -70 110 -89 72 -92 107 -216 107 -377 0 -114 -12 -123 -31 -24 -10
53 -51 145 -97 217 -9 15 -41 66 -71 113 -30 48 -71 107 -92 132 -38 43 -46
63 -32 76 12 12 22 8 106 -48z m-193 37 c0 -11 -36 -60 -91 -124 -25 -29 -56
-71 -68 -92 -12 -22 -53 -80 -90 -130 -78 -104 -95 -134 -112 -199 -19 -78
-33 -57 -26 41 10 156 75 308 169 399 68 66 141 111 181 112 20 1 37 -3 37 -7z
m-515 -560 l-5 -204 -29 -41 c-55 -81 -83 -145 -88 -207 -5 -52 -3 -63 13 -75
27 -21 43 -18 53 7 l8 23 8 -24 c4 -13 10 -19 14 -13 3 5 6 -54 6 -131 l0
-142 -32 36 c-18 20 -48 47 -66 59 l-34 23 -1 521 c0 287 2 538 6 560 6 35 14
42 72 75 l65 37 8 -150 c4 -83 6 -242 2 -354z m-2144 459 c36 -36 37 -70 3
-110 l-26 -31 32 -31 c54 -55 13 -82 -46 -30 -22 20 -45 31 -64 31 -29 0 -30
-2 -30 -43 0 -39 -13 -67 -31 -67 -4 0 -9 55 -11 123 -2 67 -7 129 -11 137 -6
12 6 19 55 31 88 23 96 23 129 -10z m1859 -561 c0 -280 -3 -510 -6 -510 -3 0
-37 14 -75 32 l-69 32 0 415 c0 443 4 523 26 514 7 -2 10 -11 7 -19 -8 -21 8
-17 57 15 25 16 48 30 53 30 4 1 7 -228 7 -509z m-280 -432 c-3 -4 -35 -2 -71
4 l-67 12 -5 50 c-6 66 4 762 12 773 3 4 32 20 64 35 31 15 58 33 59 40 2 7 5
-194 8 -447 3 -253 3 -463 0 -467z m-2156 843 c3 -5 -2 -29 -11 -55 -16 -43
-16 -48 1 -95 10 -27 16 -60 14 -72 -5 -40 -112 -87 -124 -55 -9 24 4 66 21
66 9 0 12 -6 9 -15 -7 -17 11 -21 22 -4 3 6 -6 23 -20 38 -31 32 -33 55 -6 99
11 18 20 39 20 46 0 8 12 24 28 35 30 23 38 25 46 12z m-4408 -37 c20 -10 51
-31 68 -47 17 -16 24 -26 16 -21 -13 7 -13 5 -1 -9 7 -9 18 -14 24 -10 5 3 7
1 3 -5 -3 -6 -2 -13 3 -16 5 -4 8 -25 6 -49 -3 -29 -2 -38 5 -27 8 12 10 11
10 -7 0 -14 6 -23 15 -23 12 0 14 -7 9 -27 -8 -34 -15 -42 -21 -25 -3 6 -13
12 -24 12 -10 0 -19 5 -19 12 0 6 -3 9 -6 5 -3 -3 0 -15 8 -26 8 -12 17 -19
20 -16 2 3 5 -2 5 -10 0 -12 -4 -12 -16 -3 -44 33 -69 62 -64 74 3 8 0 14 -7
14 -6 0 -8 -4 -5 -10 17 -27 -14 -5 -51 37 -50 56 -100 137 -110 177 l-7 29
52 -6 c28 -3 67 -14 87 -23z m4642 -16 c6 -53 -89 -82 -96 -29 -5 30 32 62 68
59 19 -2 26 -10 28 -30z m-460 -45 c3 -23 -8 -28 -68 -35 -17 -2 -25 -9 -25
-23 0 -15 10 -21 45 -28 77 -15 98 -53 65 -116 -17 -35 -60 -53 -111 -49 -31
2 -39 7 -39 23 0 16 7 20 35 21 56 2 59 3 70 23 12 24 2 54 -16 47 -26 -10
-75 6 -90 29 -13 20 -13 27 -1 57 20 47 63 80 101 76 23 -2 32 -9 34 -25z
m1628 -11 c-3 -2 -1 -15 4 -27 6 -16 5 -25 -3 -29 -7 -3 8 -2 33 1 25 3 53 10
62 14 25 13 32 -40 25 -190 -14 -274 -66 -480 -173 -694 -64 -128 -182 -295
-276 -394 -150 -154 -271 -237 -551 -376 -98 -48 -207 -105 -242 -126 -72 -44
-237 -172 -309 -240 -46 -43 -228 -279 -255 -330 -18 -33 -2 -47 40 -32 38 13
62 13 34 0 -17 -8 -16 -9 5 -4 14 3 35 8 47 11 12 2 33 8 47 14 13 5 27 6 32
2 4 -4 4 1 1 10 -4 12 -2 15 9 11 9 -3 13 -13 10 -22 -3 -9 -20 -56 -38 -106
-29 -82 -32 -100 -33 -211 l0 -121 43 -86 c86 -168 229 -267 387 -267 80 0
209 44 269 93 50 41 72 54 62 39 -3 -6 -2 -13 4 -17 5 -3 10 -1 10 6 0 8 4 8
15 -1 9 -7 26 -10 42 -6 66 16 81 15 87 -1 8 -19 -46 -90 -64 -85 -6 1 -9 -2
-6 -7 14 -21 -86 -77 -196 -110 -159 -48 -289 -57 -393 -26 -81 24 -228 101
-281 148 -59 52 -151 193 -180 276 -32 91 -46 200 -39 286 8 87 13 107 27 99
7 -5 8 -2 3 5 -8 14 19 85 43 114 10 11 11 17 4 17 -7 0 -12 9 -12 20 0 15 -9
22 -30 27 -16 3 -30 12 -30 19 0 8 -7 14 -16 14 -14 0 -16 8 -10 54 3 33 2 57
-4 61 -5 3 -10 17 -10 31 0 14 -4 22 -10 19 -16 -10 -12 11 5 25 8 7 15 19 15
27 0 50 119 208 222 294 132 110 190 141 483 259 94 37 197 80 230 95 182 81
378 259 517 470 161 244 218 395 292 769 14 71 26 141 26 156 0 17 5 27 15 27
8 0 13 -2 11 -5z m-1852 -109 c11 -134 8 -171 -13 -183 -11 -5 -22 -10 -25
-10 -3 0 -6 61 -6 135 0 125 1 135 19 135 15 0 19 -11 25 -77z m2331 -283 l0
-347 -65 -16 c-36 -8 -66 -15 -66 -14 -1 1 4 38 12 82 8 48 17 194 20 363 4
156 10 279 13 274 3 -5 19 -11 35 -14 22 -5 30 -2 34 14 13 52 17 -22 17 -342z
m-2565 231 c0 -21 3 -65 6 -99 l7 -61 56 30 56 30 3 -27 c3 -18 -2 -31 -15
-38 -29 -17 -125 -56 -139 -56 -10 0 -12 28 -8 118 2 65 4 123 4 130 0 7 7 12
15 12 11 0 15 -11 15 -39z m-183 -68 c21 -32 52 -84 69 -115 27 -53 28 -59 12
-74 -17 -18 -38 -12 -38 12 0 17 0 17 -55 3 -33 -8 -46 -18 -55 -39 -14 -33
-57 -76 -67 -66 -6 6 26 117 62 216 7 19 16 54 20 78 4 23 8 42 9 42 2 0 21
-26 43 -57z m-223 -74 c55 -43 57 -88 5 -114 l-29 -16 25 -33 c26 -34 33 -66
15 -66 -6 0 -29 14 -52 30 -22 17 -49 30 -60 30 -20 0 -38 -35 -38 -75 0 -26
-17 -42 -30 -29 -4 5 -11 62 -15 126 l-6 117 30 15 c27 15 88 32 117 35 6 1
23 -8 38 -20z m1461 6 c161 -34 295 -137 367 -282 29 -60 33 -78 36 -167 2
-54 0 -101 -5 -105 -4 -3 -27 -45 -50 -92 -50 -102 -104 -156 -189 -190 -50
-20 -76 -24 -176 -24 -65 0 -118 -3 -118 -7 0 -4 -7 -5 -15 -2 -8 4 -21 1 -29
-5 -21 -17 -99 58 -132 127 -46 94 -34 192 33 280 34 44 94 72 161 72 99 0
142 -44 142 -145 0 -64 -22 -95 -69 -95 -36 0 -50 17 -59 71 -6 33 -12 45 -27
47 -35 4 -48 -14 -53 -71 -6 -80 23 -141 80 -167 108 -49 214 -3 263 114 36
86 3 232 -70 314 -58 65 -114 87 -215 86 -93 -1 -172 -36 -242 -107 -126 -128
-153 -324 -68 -499 16 -35 41 -75 55 -90 28 -31 32 -43 10 -34 -8 3 -15 1 -15
-5 0 -6 -5 -7 -11 -3 -6 3 -15 1 -19 -6 -13 -22 -108 76 -145 150 -48 98 -77
217 -73 305 3 67 2 72 -14 64 -10 -5 -18 -14 -18 -19 0 -5 -7 -7 -15 -4 -8 4
-15 1 -15 -5 0 -6 -4 -11 -9 -11 -16 0 18 122 54 196 67 138 194 245 360 305
62 23 193 24 290 4z m2813 -43 c7 -5 15 -25 19 -44 l5 -36 -98 -4 c-131 -4
-185 -29 -293 -134 -44 -43 -78 -81 -75 -86 3 -4 1 -8 -5 -8 -30 0 32 155 82
208 39 41 103 80 160 97 47 15 185 19 205 7z m-4542 -28 c-3 -9 -6 -60 -6
-114 0 -90 -2 -101 -25 -128 -48 -57 -143 -51 -164 10 -6 17 -11 69 -11 114 0
76 2 84 19 84 20 0 26 -28 34 -145 2 -39 3 -40 44 -43 58 -4 67 15 58 128 -4
49 -4 93 0 99 3 6 18 11 32 11 19 0 24 -4 19 -16z m4742 -17 c55 -25 141 -104
181 -163 62 -94 90 -232 71 -349 -17 -103 -92 -263 -111 -234 -6 10 -8 7 -7
-11 2 -13 -2 -25 -9 -25 -6 0 -15 -4 -20 -9 -5 -5 -3 -6 5 -2 6 4 12 2 12 -3
0 -6 -7 -11 -17 -11 -9 0 -13 -3 -10 -6 12 -12 -109 -114 -134 -114 -11 0 -11
2 1 11 12 9 11 10 -8 6 -12 -3 -28 0 -35 6 -7 7 -52 13 -107 14 -141 4 -142 4
-51 19 134 23 222 75 297 176 91 123 110 296 48 423 -35 71 -123 169 -176 196
-40 21 -46 37 -28 84 11 29 20 29 98 -8z m-5043 -102 c0 -28 -3 -30 -42 -33
-31 -2 -46 -9 -54 -24 -14 -26 2 -38 53 -38 27 0 42 -6 57 -26 25 -32 26 -52
5 -82 -21 -31 -64 -51 -115 -54 -41 -3 -44 -1 -47 25 -3 26 -1 27 38 27 88 0
112 45 30 56 -37 5 -56 13 -70 32 -27 34 -19 58 37 110 37 35 52 42 77 40 27
-3 31 -7 31 -33z m4865 -61 c11 -28 13 -74 5 -96 -5 -11 -24 -13 -91 -10 -67
4 -93 1 -125 -13 -21 -10 -39 -24 -39 -32 0 -7 -4 -13 -8 -13 -4 0 -16 -14
-26 -31 -14 -23 -24 -29 -43 -27 -47 6 -50 29 -14 102 53 108 116 146 244 146
85 0 88 -1 97 -26z m-3620 -26 c0 -5 -7 -25 -15 -45 -8 -20 -25 -79 -36 -132
-18 -83 -22 -144 -28 -452 -4 -263 -9 -360 -19 -371 -6 -8 -32 -27 -55 -43
-34 -21 -48 -38 -61 -76 -20 -55 -40 -66 -31 -16 3 17 7 46 10 62 3 17 14 178
25 359 21 346 29 402 79 562 41 132 62 165 101 162 16 -1 30 -6 30 -10z m3708
-18 c23 -17 42 -32 42 -34 0 -2 -15 1 -34 6 -21 7 -32 16 -29 24 3 9 -2 11
-16 7 -15 -4 -21 -1 -21 11 0 23 11 20 58 -14z m-5321 -21 c-25 -14 -251 -67
-261 -61 -16 9 37 29 94 35 30 4 80 15 110 26 53 18 89 18 57 0z m33 -67 c0
-11 -60 -67 -87 -81 -33 -17 -43 -14 -43 13 0 29 12 39 70 59 53 19 60 20 60
9z m1045 -20 c-6 -4 -10 -34 -10 -67 -1 -105 -103 -372 -218 -568 -200 -338
-510 -575 -837 -639 -111 -21 -370 -15 -585 15 -305 42 -385 49 -509 45 -64
-1 -116 1 -116 5 0 5 -4 5 -10 2 -5 -3 -10 -2 -10 3 0 15 26 22 39 9 6 -6 11
-8 11 -4 0 3 -11 17 -24 30 -18 18 -21 28 -14 35 8 8 8 15 -2 26 -7 9 -10 23
-6 31 3 9 0 15 -10 15 -8 0 -12 5 -9 10 3 6 -4 14 -17 19 -21 8 -20 9 17 17
22 5 112 9 200 9 140 -1 186 -5 375 -39 264 -47 439 -57 573 -32 254 48 467
166 672 371 141 142 218 251 355 505 74 137 130 224 138 216 3 -4 2 -10 -3
-14z m-1388 -143 c8 -8 15 -5 28 15 10 14 27 26 39 26 11 0 27 4 35 9 19 12
-2 23 -44 23 -31 0 -34 2 -24 19 7 14 21 19 48 19 21 0 52 3 69 6 l30 6 -9
-42 c-8 -34 -6 -47 6 -67 9 -13 13 -28 10 -33 -10 -15 -57 -12 -76 6 -15 14
-20 14 -41 1 -12 -8 -34 -17 -48 -21 -14 -3 -41 -26 -60 -51 -19 -25 -39 -45
-44 -45 -4 0 -5 17 -2 38 4 20 9 78 12 129 5 74 10 93 23 95 13 3 18 -9 26
-59 6 -34 15 -67 22 -74z m-191 68 c34 -30 34 -67 -1 -113 l-27 -36 26 -27
c53 -55 19 -71 -45 -20 -53 42 -73 36 -77 -23 -3 -40 -6 -46 -28 -51 -13 -2
-26 -1 -29 3 -2 3 -5 62 -6 131 l-1 124 63 17 c85 22 93 22 125 -5z m534 -27
c0 -11 -109 -45 -117 -36 -7 7 76 45 100 46 9 0 17 -4 17 -10z m-810 -110 l0
-111 -38 -40 c-30 -33 -46 -42 -82 -46 -82 -9 -109 37 -110 190 0 64 1 67 24
67 23 0 24 -3 28 -90 5 -115 17 -132 75 -104 44 22 50 40 52 156 1 71 3 77 24
81 12 2 23 5 25 6 1 0 2 -49 2 -109z m2141 39 c-13 -61 -39 -295 -51 -474 -24
-345 -101 -616 -234 -814 -160 -241 -346 -384 -616 -475 -139 -47 -250 -60
-425 -52 -297 14 -425 40 -650 134 -113 47 -366 102 -467 102 -50 0 -88 26
-88 60 0 9 -5 21 -11 27 -7 7 -9 19 -6 27 4 9 6 19 6 23 -1 15 40 22 139 22
138 1 351 -29 407 -57 17 -8 71 -43 121 -77 50 -34 113 -70 140 -79 86 -30
517 -43 534 -16 3 5 12 8 20 7 13 -2 247 114 347 170 104 59 297 256 388 394
73 111 139 228 150 269 4 14 20 52 35 85 103 221 139 340 124 409 -10 44 -11
75 -2 70 4 -3 10 7 13 21 3 14 7 36 10 49 3 14 12 31 20 40 8 8 15 25 15 38 0
23 15 49 52 88 9 10 19 28 23 40 12 37 16 15 6 -31z m2919 -5 c224 -50 462
-261 576 -511 41 -91 71 -191 80 -272 6 -53 4 -60 -17 -75 -13 -9 -37 -16 -54
-16 -17 0 -36 -5 -43 -12 -9 -9 -12 -4 -13 22 -1 19 -5 49 -9 65 -6 19 -7 4
-3 -40 19 -253 -92 -529 -284 -705 -104 -96 -212 -156 -377 -213 -86 -29 -100
-31 -246 -31 -136 -1 -164 2 -230 22 -206 65 -389 192 -512 357 -86 115 -113
164 -133 247 -18 69 -14 158 6 158 6 0 7 5 4 10 -3 6 -1 10 5 10 6 0 9 4 6 9
-3 4 3 16 14 26 18 17 19 16 25 -11 41 -190 174 -409 320 -527 76 -61 239
-142 330 -163 94 -23 261 -23 343 -1 296 79 503 282 583 572 75 269 -38 566
-275 720 -121 79 -184 98 -336 99 -113 1 -133 -2 -201 -27 -76 -27 -118 -36
-90 -18 9 6 10 10 2 16 -12 7 -10 43 4 77 7 16 88 48 123 48 9 0 13 3 10 6 -4
3 -46 -1 -94 -10 -48 -8 -91 -13 -95 -11 -4 3 -10 -2 -13 -11 -4 -9 -8 -15
-11 -13 -4 5 38 136 48 145 3 4 2 -7 -3 -25 -5 -18 -5 -31 0 -31 5 0 12 16 16
35 6 31 11 36 68 54 155 50 322 59 476 25z m-5411 -15 c36 -13 37 -16 14 -41
-18 -20 -48 -24 -58 -8 -11 18 -34 11 -51 -16 -21 -32 -8 -44 47 -44 73 0 110
-59 73 -116 -34 -51 -125 -71 -172 -38 -34 24 -12 42 55 46 41 2 59 8 67 21
15 24 -6 37 -61 37 -50 0 -73 20 -73 63 0 41 24 75 64 93 38 16 54 17 95 3z
m1792 -221 c-110 -159 -292 -331 -421 -398 -30 -15 -86 -44 -125 -64 -197
-102 -428 -110 -832 -30 -95 19 -189 34 -210 35 -21 0 -56 4 -78 9 -33 8 -27
9 36 6 52 -3 76 -1 78 7 1 7 4 40 7 75 3 34 10 62 15 62 6 0 7 5 3 12 -12 20
130 2 271 -34 124 -31 138 -33 315 -33 150 0 198 4 255 19 170 46 339 145 470
275 63 64 97 89 79 60 -5 -8 -1 -8 14 0 12 6 23 15 26 20 3 5 19 8 35 7 17 -1
28 1 26 4 -2 3 7 10 21 17 22 10 23 9 13 -11 -6 -13 0 -9 18 11 46 54 38 29
-16 -49z m-2133 41 c4 -38 -18 -50 -85 -47 -53 3 -58 5 -61 27 -6 37 23 52 88
49 51 -3 55 -5 58 -29z m-244 -21 c19 -31 -5 -40 -156 -62 l-38 -5 0 38 c0 21
3 41 7 45 4 4 45 5 91 4 67 -2 87 -7 96 -20z m2036 -39 c-25 -22 -72 -52 -105
-68 -33 -16 -100 -48 -150 -71 -108 -52 -198 -64 -400 -57 -122 4 -182 16
-213 40 -22 17 4 25 112 31 56 4 139 9 186 12 46 3 92 10 101 15 10 5 42 9 72
9 36 0 73 8 111 25 31 14 63 25 71 25 7 0 27 11 43 25 19 16 42 25 64 25 19 0
39 5 46 12 9 9 12 9 12 -2 0 -9 5 -8 20 5 13 12 20 14 20 5 0 -9 3 -10 13 -1
8 6 17 8 20 4 4 -3 7 0 7 7 0 7 3 10 8 6 4 -5 -13 -26 -38 -47z m4660 -99 c45
-18 44 -22 -13 -35 -20 -4 -27 -10 -23 -20 12 -32 -3 -13 -28 36 l-27 51 23
-7 c13 -4 43 -16 68 -25z m-762 -82 c62 -26 151 -85 152 -102 0 -5 -9 -1 -20
9 -23 21 -50 13 -50 -15 0 -11 -4 -20 -9 -20 -5 0 -11 -18 -15 -40 -3 -23 -10
-38 -15 -35 -5 3 -7 -4 -4 -15 4 -14 0 -20 -11 -20 -10 0 -14 -4 -11 -10 10
-15 -15 -52 -31 -46 -12 5 -12 0 1 -27 l16 -32 -33 37 c-18 21 -50 44 -70 53
-52 21 -131 19 -176 -4 -51 -26 -139 -106 -159 -145 -16 -32 -31 -46 -48 -46
-5 0 -4 4 3 9 10 6 6 11 -17 19 -17 6 -31 15 -31 21 0 5 -14 14 -31 20 -36 13
-69 46 -69 71 0 10 -11 25 -25 34 -17 11 -25 13 -25 5 0 -7 -3 -10 -6 -6 -13
12 69 128 128 182 113 102 213 136 383 131 90 -2 121 -7 173 -28z m-2618 -838
c0 -5 -4 -10 -10 -10 -5 0 -10 5 -10 10 0 6 5 10 10 10 6 0 10 -4 10 -10z
m860 -32 c0 -12 -3 -18 -6 -15 -4 3 -16 0 -28 -8 -27 -19 -54 -21 -34 -2 12
11 60 45 66 46 1 1 2 -9 2 -21z m339 -103 c24 -68 25 -75 10 -75 -13 0 -79 53
-79 64 0 5 6 3 14 -3 17 -14 26 5 26 51 0 40 4 36 29 -37z m-84 -5 c3 -6 -1
-7 -9 -4 -18 7 -21 14 -7 14 6 0 13 -4 16 -10z m-1022 -37 c-7 -2 -19 -2 -25
0 -7 3 -2 5 12 5 14 0 19 -2 13 -5z m852 -53 c4 -6 25 -18 46 -27 27 -10 38
-20 35 -29 -3 -8 0 -26 7 -41 9 -21 9 -27 -1 -31 -6 -2 -12 -15 -12 -28 0 -30
-4 -30 -44 1 -83 63 -162 71 -243 25 -28 -16 -60 -42 -71 -57 -32 -46 -72
-123 -72 -138 0 -8 -11 -27 -24 -42 l-24 -28 -11 28 c-46 119 85 303 252 356
68 22 152 27 162 11z m-66 -257 c56 -41 87 -149 62 -216 -10 -26 -50 -56 -84
-63 -121 -23 -191 -11 -240 42 -27 29 -26 76 2 73 9 -1 22 -1 29 0 14 1 16 37
2 46 -19 12 -11 73 13 101 40 46 163 56 216 17z m-472 -85 c-2 -13 -4 -3 -4
22 0 25 2 35 4 23 2 -13 2 -33 0 -45z m38 -128 c2 -8 7 -24 11 -34 5 -13 4
-17 -3 -13 -12 8 -43 98 -43 124 1 16 25 -38 35 -77z m1125 20 c-8 -5 -19 -10
-25 -10 -5 0 -3 5 5 10 8 5 20 10 25 10 6 0 3 -5 -5 -10z m-1099 -83 c-10 -9
-11 -8 -5 6 3 10 9 15 12 12 3 -3 0 -11 -7 -18z m765 -143 c-4 -9 -9 -15 -11
-12 -3 3 -3 13 1 22 4 9 9 15 11 12 3 -3 3 -13 -1 -22z m188 -9 c-4 -8 -10
-12 -15 -9 -5 3 -9 0 -9 -7 0 -7 -3 -9 -6 -6 -8 7 14 37 27 37 5 0 6 -7 3 -15z
m-2187 -116 c15 -6 46 -14 68 -19 167 -34 298 -59 345 -65 30 -4 73 -15 96
-26 22 -10 50 -16 61 -13 12 3 24 1 27 -4 3 -6 -3 -8 -16 -6 -18 3 -16 1 6 -9
16 -8 25 -16 20 -19 -15 -9 -292 21 -399 42 -55 11 -138 30 -185 42 -82 22
-84 22 -50 31 19 4 43 8 53 8 9 0 17 4 17 10 0 5 -6 9 -14 9 -17 0 -85 29 -69
30 6 0 24 -5 40 -11z"/>
<path d="M5615 7960 c-3 -5 1 -10 9 -10 8 0 18 5 21 10 3 6 -1 10 -9 10 -8 0
-18 -4 -21 -10z"/>
<path d="M4837 7924 c6 -15 23 -19 23 -5 0 5 -7 11 -14 14 -10 4 -13 1 -9 -9z"/>
<path d="M4886 7903 c5 -5 12 -12 16 -18 4 -6 8 -2 8 8 0 9 -7 17 -17 17 -9 0
-12 -3 -7 -7z"/>
<path d="M5545 7903 c-11 -3 -25 -9 -32 -15 -6 -5 -24 -10 -40 -12 -15 -1 -34
-5 -41 -10 -7 -4 -29 -5 -47 -2 -31 6 -34 5 -28 -11 6 -15 4 -16 -8 -6 -11 9
-27 9 -59 2 -24 -5 -50 -7 -57 -5 -8 3 -11 1 -8 -4 3 -6 0 -10 -9 -10 -8 0
-16 6 -19 13 -3 9 -8 8 -22 -3 -11 -9 -16 -10 -11 -2 4 6 2 12 -3 12 -6 0 -11
-5 -11 -11 0 -20 -110 -1 -172 30 -56 28 -57 28 -40 6 9 -13 20 -21 25 -18 4
2 7 -1 7 -7 0 -6 5 -8 10 -5 6 3 10 1 10 -6 0 -7 3 -9 7 -6 3 4 13 1 21 -5 22
-19 295 -14 392 7 14 2 35 7 47 9 12 3 32 12 46 20 13 9 27 13 30 9 4 -3 7 -1
7 5 0 7 7 12 15 12 8 0 15 5 15 10 0 6 -1 9 -2 9 -2 -1 -12 -4 -23 -6z"/>
<path d="M5090 7849 c0 -5 9 -9 20 -9 11 0 20 2 20 4 0 2 -9 6 -20 9 -11 3
-20 1 -20 -4z"/>
<path d="M2337 6509 c7 -7 15 -10 18 -7 3 3 -2 9 -12 12 -14 6 -15 5 -6 -5z"/>
<path d="M3121 8333 c1 -53 6 -49 11 10 2 20 0 37 -4 37 -4 0 -8 -21 -7 -47z"/>
<path d="M8154 8221 c-61 -15 -127 -57 -183 -116 -73 -79 -96 -148 -95 -282 1
-83 4 -99 33 -157 38 -77 98 -134 188 -177 172 -82 378 -2 476 186 30 57 31
65 32 180 0 129 -9 159 -72 242 -74 97 -250 155 -379 124z m118 -252 c75 -15
205 -80 261 -129 38 -34 47 -48 47 -74 0 -18 -6 -41 -14 -52 -14 -18 -17 -16
-78 42 -35 34 -82 71 -105 83 -129 65 -297 68 -429 5 -30 -14 -58 -24 -61 -20
-10 10 7 73 25 88 65 58 226 83 354 57z m168 -267 c0 -23 -37 -68 -47 -58 -4
4 -2 10 4 14 7 4 16 20 22 35 12 31 21 35 21 9z"/>
<path d="M3995 7680 c-3 -5 -1 -10 4 -10 6 0 11 5 11 10 0 6 -2 10 -4 10 -3 0
-8 -4 -11 -10z"/>
<path d="M8955 7006 c-16 -7 -39 -23 -50 -36 -19 -22 -20 -34 -17 -414 2 -215
5 -392 5 -393 1 -1 27 5 57 13 30 8 69 14 86 14 20 0 34 6 38 16 3 9 6 186 6
394 l0 378 -24 15 c-36 24 -68 28 -101 13z"/>
<path d="M7333 6753 l-53 -16 0 -273 c0 -151 2 -274 5 -274 17 0 122 69 151
98 l34 35 0 112 c0 62 3 152 6 202 6 83 5 92 -15 112 -25 25 -55 26 -128 4z"/>
<path d="M2478 5913 c7 -3 16 -2 19 1 4 3 -2 6 -13 5 -11 0 -14 -3 -6 -6z"/>
<path d="M881 5360 c0 -8 4 -22 9 -30 12 -18 12 -2 0 25 -6 13 -9 15 -9 5z"/>
<path d="M1710 6049 c60 -10 108 -9 55 2 -22 4 -53 8 -70 7 -22 0 -19 -3 15
-9z"/>
<path d="M2875 5391 l-50 -18 -3 -276 c-1 -153 1 -277 4 -277 12 0 119 63 142
84 48 43 52 62 52 269 0 189 0 194 -23 215 -28 26 -55 27 -122 3z"/>
<path d="M2032 5273 c-18 -8 -46 -31 -62 -50 l-30 -34 0 -364 0 -364 107 45
c59 24 108 45 109 47 2 1 6 158 10 348 l7 345 -28 22 c-33 26 -68 28 -113 5z"/>
<path d="M8547 5174 c-4 -4 -7 -22 -7 -40 0 -29 4 -32 36 -38 45 -9 66 7 62
48 -3 28 -6 31 -43 34 -23 2 -44 0 -48 -4z"/>
<path d="M7616 4906 c-3 -13 -9 -31 -12 -40 -5 -12 0 -16 19 -16 35 0 41 14
22 50 -19 36 -21 37 -29 6z"/>
<path d="M6098 4539 c-17 -10 -26 -68 -12 -81 10 -11 79 13 96 34 37 42 -30
79 -84 47z"/>
<path d="M5330 1891 c0 -5 -3 -17 -6 -26 -6 -15 -4 -15 14 -4 11 7 18 19 15
26 -6 15 -23 18 -23 4z"/>
<path d="M7482 3995 c0 -16 2 -22 5 -12 2 9 2 23 0 30 -3 6 -5 -1 -5 -18z"/>
<path d="M7503 3975 c0 -27 2 -38 4 -22 2 15 2 37 0 50 -2 12 -4 0 -4 -28z"/>
<path d="M7442 3930 c0 -19 2 -27 5 -17 2 9 2 25 0 35 -3 9 -5 1 -5 -18z"/>
<path d="M4737 3998 c-3 -24 -4 -44 -3 -46 2 -1 14 6 27 17 22 17 22 21 10 45
-20 36 -27 33 -34 -16z"/>
<path d="M4433 3970 c-18 -7 -23 -17 -23 -46 l0 -36 38 7 c53 9 82 31 82 60 0
22 -4 25 -37 24 -21 0 -48 -4 -60 -9z"/>
<path d="M3008 3508 c-23 -8 -28 -16 -28 -44 0 -44 18 -51 67 -27 43 20 54 50
27 70 -21 15 -29 15 -66 1z"/>
<path d="M4850 3149 c0 -5 5 -7 10 -4 6 3 10 8 10 11 0 2 -4 4 -10 4 -5 0 -10
-5 -10 -11z"/>
<path d="M6390 2015 c-8 -9 -8 -15 -2 -15 12 0 26 19 19 26 -2 2 -10 -2 -17
-11z"/>
<path d="M4550 1090 c0 -5 7 -10 16 -10 8 0 12 5 9 10 -3 6 -10 10 -16 10 -5
0 -9 -4 -9 -10z"/>
</g>
</svg>
